<?xml version="1.0" standalone="no"?>
<!DOCTYPE svg PUBLIC "-//W3C//DTD SVG 20010904//EN"
 "http://www.w3.org/TR/2001/REC-SVG-20010904/DTD/svg10.dtd">
<svg version="1.0" xmlns="http://www.w3.org/2000/svg"
 width="1038.000000pt" height="1280.000000pt" viewBox="0 0 1038.000000 1280.000000"
 preserveAspectRatio="xMidYMid meet">
<metadata>
Created by potrace 1.15, written by Peter Selinger 2001-2017
</metadata>
<g transform="translate(0.000000,1280.000000) scale(0.100000,-0.100000)"
fill="#000000" stroke="none">
<path d="M9805 12784 c-82 -18 -232 -75 -292 -110 -74 -43 -134 -138 -208
-324 -40 -104 -148 -425 -160 -478 -5 -27 -22 -43 -93 -91 -512 -343 -1290
-656 -2377 -954 -372 -102 -487 -123 -840 -157 -369 -35 -527 -70 -700 -157
-94 -47 -155 -87 -244 -162 -51 -43 -60 -46 -158 -63 -57 -9 -127 -28 -156
-41 -427 -197 -703 -1369 -881 -3747 -52 -690 -102 -1607 -161 -2975 -56
-1297 -96 -2053 -125 -2365 -6 -58 -10 -115 -10 -126 0 -19 -7 -22 -77 -28
-43 -4 -120 -14 -171 -23 -51 -8 -94 -14 -96 -12 -1 2 -62 302 -135 667 -73
364 -143 694 -156 733 -43 125 -116 228 -189 266 -17 9 -52 17 -78 17 -54 1
-92 -22 -123 -75 -29 -49 -27 -205 3 -312 12 -43 128 -358 256 -700 129 -342
236 -628 238 -635 2 -8 -22 -21 -63 -35 l-66 -23 -354 566 c-398 637 -426 674
-569 743 -219 107 -456 41 -549 -153 -22 -46 -26 -69 -26 -140 0 -104 19 -164
85 -262 69 -106 104 -139 550 -528 223 -194 423 -369 444 -388 34 -30 37 -36
22 -44 -104 -58 -326 -266 -426 -400 -34 -46 -66 -84 -69 -86 -4 -1 -324 59
-712 133 -602 116 -718 136 -804 136 -160 1 -265 -39 -312 -119 -49 -83 -12
-167 100 -222 118 -58 172 -63 1017 -85 300 -8 620 -17 712 -21 151 -6 168 -5
168 10 0 15 51 16 554 16 520 0 555 1 559 18 4 16 5 16 6 0 1 -17 62 -18 1128
-18 877 0 1124 3 1115 12 -7 7 -12 16 -12 20 0 4 264 8 588 8 326 0 618 5 657
10 235 33 406 178 445 378 36 182 -81 354 -274 401 -75 19 -224 15 -321 -8
-46 -11 -272 -79 -502 -150 -656 -204 -877 -271 -887 -271 -5 0 -26 15 -47 34
l-38 35 507 428 c312 264 525 451 555 488 117 145 147 296 74 367 -82 77 -207
46 -358 -90 -33 -30 -255 -282 -495 -562 l-435 -508 -94 59 c-51 32 -105 64
-120 71 -16 7 -25 18 -22 27 2 9 136 321 296 693 161 373 301 712 311 755 47
182 5 360 -114 477 -186 184 -454 133 -583 -110 -60 -113 -79 -210 -128 -639
-89 -800 -117 -1040 -119 -1042 -1 -1 -40 9 -86 23 -94 27 -252 58 -349 69
l-64 7 7 92 c22 327 58 950 136 2391 135 2488 225 3799 336 4880 54 534 137
1109 185 1299 l11 39 101 -7 c295 -21 516 -107 852 -331 99 -67 277 -186 395
-266 376 -253 618 -363 925 -423 198 -38 484 -45 679 -16 38 6 70 9 72 7 1 -1
-45 -54 -103 -117 -121 -132 -305 -364 -293 -368 9 -3 260 39 355 59 446 96
858 254 1340 515 300 162 775 451 754 458 -53 16 -375 49 -527 54 l-182 5 133
136 c140 143 278 318 365 462 134 222 248 508 297 746 23 110 34 132 62 133 6
0 35 33 64 73 29 39 109 144 179 232 218 276 305 408 379 581 128 297 118 601
-29 909 -47 98 -115 177 -183 212 -65 32 -173 39 -272 17z m23 -283 c83 -56
158 -141 195 -218 30 -64 32 -74 32 -183 -1 -140 -19 -207 -105 -379 -53 -105
-227 -382 -250 -396 -4 -3 -27 73 -50 167 -134 555 -127 902 21 1006 18 12 80
39 97 42 2 0 29 -17 60 -39z"/>
<path d="M6440 3011 c-88 -27 -117 -56 -515 -515 l-337 -388 23 -23 24 -23
425 288 c234 159 450 313 481 342 66 63 96 133 85 201 -15 92 -98 145 -186
118z"/>
<path d="M7380 1844 c-39 -18 -898 -558 -939 -590 -2 -2 2 -17 9 -34 9 -22 17
-29 29 -25 16 7 497 162 816 264 207 67 246 85 297 138 45 46 58 79 58 145 0
45 -4 54 -39 89 -37 38 -41 39 -107 39 -53 0 -82 -6 -124 -26z"/>
<path d="M232 1753 c-58 -29 -89 -99 -72 -164 24 -89 63 -121 551 -446 l461
-308 19 24 c17 20 18 26 6 40 -124 147 -706 797 -732 817 -70 53 -169 69 -233
37z"/>
</g>
</svg>
